{
  "asset": {
    "generator": "OpenSceneGraph 3.5.6",
    "version": "2.0"
  },
  "accessors": [
    {
      "type": "VEC3",
      "componentType": 5126,
      "count": 24,
      "max": [
        0.4999992847442627,
        0.500000536441803,
        0.500000536441803
      ],
      "min": [
        -0.5,
        -0.5,
        -0.5
      ],
      "bufferView": 0,
      "byteOffset": 0
    },
    {
      "type": "VEC3",
      "componentType": 5126,
      "count": 24,
      "bufferView": 0,
      "byteOffset": 12
    },
    {
      "type": "VEC2",
      "componentType": 5126,
      "count": 24,
      "bufferView": 0,
      "byteOffset": 24
    },
    {
      "type": "SCALAR",
      "componentType": 5123,
      "count": 36,
      "bufferView": 1,
      "byteOffset": 0
    },
    {
      "type": "SCALAR",
      "componentType": 5123,
      "count": 39822,
      "bufferView": 1,
      "byteOffset": 72
    },
    {
      "type": "SCALAR",
      "componentType": 5123,
      "count": 5376,
      "bufferView": 1,
      "byteOffset": 79716
    },
    {
      "type": "SCALAR",
      "componentType": 5123,
      "count": 7644,
      "bufferView": 1,
      "byteOffset": 90468
    },
    {
      "type": "SCALAR",
      "componentType": 5123,
      "count": 10734,
      "bufferView": 1,
      "byteOffset": 105756
    },
    {
      "type": "SCALAR",
      "componentType": 5123,
      "count": 10176,
      "bufferView": 1,
      "byteOffset": 127224
    },
    {
      "type": "SCALAR",
      "componentType": 5123,
      "count": 2838,
      "bufferView": 1,
      "byteOffset": 147576
    },
    {
      "type": "SCALAR",
      "componentType": 5123,
      "count": 5376,
      "bufferView": 1,
      "byteOffset": 153252
    },
    {
      "type": "SCALAR",
      "componentType": 5123,
      "count": 7644,
      "bufferView": 1,
      "byteOffset": 164004
    },
    {
      "type": "SCALAR",
      "componentType": 5123,
      "count": 10734,
      "bufferView": 1,
      "byteOffset": 179292
    },
    {
      "type": "SCALAR",
      "componentType": 5123,
      "count": 10176,
      "bufferView": 1,
      "byteOffset": 200760
    },
    {
      "type": "SCALAR",
      "componentType": 5123,
      "count": 2838,
      "bufferView": 1,
      "byteOffset": 221112
    },
    {
      "type": "SCALAR",
      "componentType": 5123,
      "count": 936,
      "bufferView": 1,
      "byteOffset": 226788
    },
    {
      "type": "SCALAR",
      "componentType": 5123,
      "count": 185742,
      "bufferView": 1,
      "byteOffset": 228660
    },
    {
      "type": "SCALAR",
      "componentType": 5123,
      "count": 125526,
      "bufferView": 1,
      "byteOffset": 600144
    },
    {
      "type": "SCALAR",
      "componentType": 5123,
      "count": 373725,
      "bufferView": 1,
      "byteOffset": 851196
    },
    {
      "type": "SCALAR",
      "componentType": 5123,
      "count": 375054,
      "bufferView": 1,
      "byteOffset": 1598648
    },
    {
      "type": "SCALAR",
      "componentType": 5123,
      "count": 361383,
      "bufferView": 1,
      "byteOffset": 2348756
    },
    {
      "type": "SCALAR",
      "componentType": 5123,
      "count": 104238,
      "bufferView": 1,
      "byteOffset": 3071524
    },
    {
      "type": "VEC3",
      "componentType": 5126,
      "count": 10673,
      "max": [
        24.304824829101562,
        41.67881393432617,
        22.859201431274414
      ],
      "min": [
        -22.904499053955078,
        -0.2901400029659271,
        -22.85930061340332
      ],
      "bufferView": 2,
      "byteOffset": 0
    },
    {
      "type": "VEC3",
      "componentType": 5126,
      "count": 10673,
      "bufferView": 2,
      "byteOffset": 12
    },
    {
      "type": "VEC2",
      "componentType": 5126,
      "count": 10673,
      "bufferView": 2,
      "byteOffset": 24
    },
    {
      "type": "VEC3",
      "componentType": 5126,
      "count": 2374,
      "max": [
        13.251173973083496,
        38.43952560424805,
        0.4491148293018341
      ],
      "min": [
        9.821610450744629,
        22.90130043029785,
        -0.6930170059204102
      ],
      "bufferView": 3,
      "byteOffset": 0
    },
    {
      "type": "VEC3",
      "componentType": 5126,
      "count": 2374,
      "bufferView": 3,
      "byteOffset": 12
    },
    {
      "type": "VEC4",
      "componentType": 5121,
      "count": 2374,
      "normalized": true,
      "bufferView": 3,
      "byteOffset": 24
    },
    {
      "type": "VEC2",
      "componentType": 5126,
      "count": 2374,
      "bufferView": 3,
      "byteOffset": 28
    },
    {
      "type": "VEC3",
      "componentType": 5126,
      "count": 3380,
      "max": [
        -9.989931106567383,
        38.6632194519043,
        0.4491148293018341
      ],
      "min": [
        -14.259400367736816,
        22.88559913635254,
        -0.6930170059204102
      ],
      "bufferView": 4,
      "byteOffset": 0
    },
    {
      "type": "VEC3",
      "componentType": 5126,
      "count": 3380,
      "bufferView": 4,
      "byteOffset": 12
    },
    {
      "type": "VEC4",
      "componentType": 5121,
      "count": 3380,
      "normalized": true,
      "bufferView": 4,
      "byteOffset": 24
    },
    {
      "type": "VEC2",
      "componentType": 5126,
      "count": 3380,
      "bufferView": 4,
      "byteOffset": 28
    },
    {
      "type": "VEC3",
      "componentType": 5126,
      "count": 3646,
      "max": [
        12.09218692779541,
        39.42393112182617,
        0.4982829988002777
      ],
      "min": [
        4.28154993057251,
        22.712499618530273,
        -0.7467089891433716
      ],
      "bufferView": 5,
      "byteOffset": 0
    },
    {
      "type": "VEC3",
      "componentType": 5126,
      "count": 3646,
      "bufferView": 5,
      "byteOffset": 12
    },
    {
      "type": "VEC4",
      "componentType": 5121,
      "count": 3646,
      "normalized": true,
      "bufferView": 5,
      "byteOffset": 24
    },
    {
      "type": "VEC2",
      "componentType": 5126,
      "count": 3646,
      "bufferView": 5,
      "byteOffset": 28
    },
    {
      "type": "VEC3",
      "componentType": 5126,
      "count": 3448,
      "max": [
        -4.566224575042725,
        39.42393112182617,
        0.4982829988002777
      ],
      "min": [
        -12.376861572265625,
        22.712499618530273,
        -0.7467089891433716
      ],
      "bufferView": 6,
      "byteOffset": 0
    },
    {
      "type": "VEC3",
      "componentType": 5126,
      "count": 3448,
      "bufferView": 6,
      "byteOffset": 12
    },
    {
      "type": "VEC4",
      "componentType": 5121,
      "count": 3448,
      "normalized": true,
      "bufferView": 6,
      "byteOffset": 24
    },
    {
      "type": "VEC2",
      "componentType": 5126,
      "count": 3448,
      "bufferView": 6,
      "byteOffset": 28
    },
    {
      "type": "VEC3",
      "componentType": 5126,
      "count": 1472,
      "max": [
        14.408217430114746,
        44.4484977722168,
        0.9229186773300171
      ],
      "min": [
        -15.348099708557129,
        14.662500381469727,
        -0.9229310154914856
      ],
      "bufferView": 7,
      "byteOffset": 0
    },
    {
      "type": "VEC3",
      "componentType": 5126,
      "count": 1472,
      "bufferView": 7,
      "byteOffset": 12
    },
    {
      "type": "VEC4",
      "componentType": 5121,
      "count": 1472,
      "normalized": true,
      "bufferView": 7,
      "byteOffset": 24
    },
    {
      "type": "VEC2",
      "componentType": 5126,
      "count": 1472,
      "bufferView": 7,
      "byteOffset": 28
    },
    {
      "type": "VEC3",
      "componentType": 5126,
      "count": 2374,
      "max": [
        13.251173973083496,
        38.43952560424805,
        0.4491148293018341
      ],
      "min": [
        9.821610450744629,
        22.90130043029785,
        -0.6930170059204102
      ],
      "bufferView": 8,
      "byteOffset": 0
    },
    {
      "type": "VEC3",
      "componentType": 5126,
      "count": 2374,
      "bufferView": 8,
      "byteOffset": 12
    },
    {
      "type": "VEC4",
      "componentType": 5121,
      "count": 2374,
      "normalized": true,
      "bufferView": 8,
      "byteOffset": 24
    },
    {
      "type": "VEC2",
      "componentType": 5126,
      "count": 2374,
      "bufferView": 8,
      "byteOffset": 28
    },
    {
      "type": "VEC3",
      "componentType": 5126,
      "count": 3380,
      "max": [
        -9.989931106567383,
        38.6632194519043,
        0.4491148293018341
      ],
      "min": [
        -14.259400367736816,
        22.88559913635254,
        -0.6930170059204102
      ],
      "bufferView": 9,
      "byteOffset": 0
    },
    {
      "type": "VEC3",
      "componentType": 5126,
      "count": 3380,
      "bufferView": 9,
      "byteOffset": 12
    },
    {
      "type": "VEC4",
      "componentType": 5121,
      "count": 3380,
      "normalized": true,
      "bufferView": 9,
      "byteOffset": 24
    },
    {
      "type": "VEC2",
      "componentType": 5126,
      "count": 3380,
      "bufferView": 9,
      "byteOffset": 28
    },
    {
      "type": "VEC3",
      "componentType": 5126,
      "count": 3646,
      "max": [
        12.09218692779541,
        39.42393112182617,
        0.4982829988002777
      ],
      "min": [
        4.28154993057251,
        22.712499618530273,
        -0.7467089891433716
      ],
      "bufferView": 10,
      "byteOffset": 0
    },
    {
      "type": "VEC3",
      "componentType": 5126,
      "count": 3646,
      "bufferView": 10,
      "byteOffset": 12
    },
    {
      "type": "VEC4",
      "componentType": 5121,
      "count": 3646,
      "normalized": true,
      "bufferView": 10,
      "byteOffset": 24
    },
    {
      "type": "VEC2",
      "componentType": 5126,
      "count": 3646,
      "bufferView": 10,
      "byteOffset": 28
    },
    {
      "type": "VEC3",
      "componentType": 5126,
      "count": 3448,
      "max": [
        -4.566224575042725,
        39.42393112182617,
        0.4982829988002777
      ],
      "min": [
        -12.376861572265625,
        22.712499618530273,
        -0.7467089891433716
      ],
      "bufferView": 11,
      "byteOffset": 0
    },
    {
      "type": "VEC3",
      "componentType": 5126,
      "count": 3448,
      "bufferView": 11,
      "byteOffset": 12
    },
    {
      "type": "VEC4",
      "componentType": 5121,
      "count": 3448,
      "normalized": true,
      "bufferView": 11,
      "byteOffset": 24
    },
    {
      "type": "VEC2",
      "componentType": 5126,
      "count": 3448,
      "bufferView": 11,
      "byteOffset": 28
    },
    {
      "type": "VEC3",
      "componentType": 5126,
      "count": 1472,
      "max": [
        14.408217430114746,
        44.4484977722168,
        0.9229186773300171
      ],
      "min": [
        -15.348099708557129,
        14.662500381469727,
        -0.9229310154914856
      ],
      "bufferView": 12,
      "byteOffset": 0
    },
    {
      "type": "VEC3",
      "componentType": 5126,
      "count": 1472,
      "bufferView": 12,
      "byteOffset": 12
    },
    {
      "type": "VEC4",
      "componentType": 5121,
      "count": 1472,
      "normalized": true,
      "bufferView": 12,
      "byteOffset": 24
    },
    {
      "type": "VEC2",
      "componentType": 5126,
      "count": 1472,
      "bufferView": 12,
      "byteOffset": 28
    },
    {
      "type": "VEC3",
      "componentType": 5126,
      "count": 484,
      "max": [
        0.49999600648880005,
        48.67683792114258,
        0.9999960064888
      ],
      "min": [
        -1.5,
        43.35860061645508,
        -1
      ],
      "bufferView": 13,
      "byteOffset": 0
    },
    {
      "type": "VEC3",
      "componentType": 5126,
      "count": 484,
      "bufferView": 13,
      "byteOffset": 12
    },
    {
      "type": "VEC4",
      "componentType": 5121,
      "count": 484,
      "normalized": true,
      "bufferView": 13,
      "byteOffset": 24
    },
    {
      "type": "VEC2",
      "componentType": 5126,
      "count": 484,
      "bufferView": 13,
      "byteOffset": 28
    },
    {
      "type": "VEC3",
      "componentType": 5126,
      "count": 65531,
      "max": [
        0.0435263030230999,
        58.54297637939453,
        4.690042018890381
      ],
      "min": [
        -0.9804700613021851,
        48.543800354003906,
        -4.7212300300598145
      ],
      "bufferView": 14,
      "byteOffset": 0
    },
    {
      "type": "VEC3",
      "componentType": 5126,
      "count": 65531,
      "bufferView": 14,
      "byteOffset": 12
    },
    {
      "type": "VEC4",
      "componentType": 5121,
      "count": 65531,
      "normalized": true,
      "bufferView": 14,
      "byteOffset": 24
    },
    {
      "type": "VEC2",
      "componentType": 5126,
      "count": 65531,
      "bufferView": 14,
      "byteOffset": 28
    },
    {
      "type": "VEC3",
      "componentType": 5126,
      "count": 42732,
      "max": [
        0.042524319142103195,
        58.54297637939453,
        4.690042018890381
      ],
      "min": [
        -0.9824740290641785,
        48.543800354003906,
        -4.7212300300598145
      ],
      "bufferView": 15,
      "byteOffset": 0
    },
    {
      "type": "VEC3",
      "componentType": 5126,
      "count": 42732,
      "bufferView": 15,
      "byteOffset": 12
    },
    {
      "type": "VEC4",
      "componentType": 5121,
      "count": 42732,
      "normalized": true,
      "bufferView": 15,
      "byteOffset": 24
    },
    {
      "type": "VEC2",
      "componentType": 5126,
      "count": 42732,
      "bufferView": 15,
      "byteOffset": 28
    },
    {
      "type": "VEC3",
      "componentType": 5126,
      "count": 65531,
      "max": [
        105.64817810058594,
        28.150712966918945,
        41.412452697753906
      ],
      "min": [
        65.14779663085938,
        23.744600296020508,
        25.27720069885254
      ],
      "bufferView": 16,
      "byteOffset": 0
    },
    {
      "type": "VEC3",
      "componentType": 5126,
      "count": 65531,
      "bufferView": 16,
      "byteOffset": 12
    },
    {
      "type": "VEC2",
      "componentType": 5126,
      "count": 65531,
      "bufferView": 16,
      "byteOffset": 24
    },
    {
      "type": "VEC3",
      "componentType": 5126,
      "count": 65531,
      "max": [
        106.23722839355469,
        28.150712966918945,
        37.538970947265625
      ],
      "min": [
        64.45929718017578,
        23.744600296020508,
        2.950500011444092
      ],
      "bufferView": 17,
      "byteOffset": 0
    },
    {
      "type": "VEC3",
      "componentType": 5126,
      "count": 65531,
      "bufferView": 17,
      "byteOffset": 12
    },
    {
      "type": "VEC2",
      "componentType": 5126,
      "count": 65531,
      "bufferView": 17,
      "byteOffset": 24
    },
    {
      "type": "VEC3",
      "componentType": 5126,
      "count": 65531,
      "max": [
        105.9529037475586,
        28.150712966918945,
        41.084774017333984
      ],
      "min": [
        64.45929718017578,
        23.744600296020508,
        -0.36580100655555725
      ],
      "bufferView": 18,
      "byteOffset": 0
    },
    {
      "type": "VEC3",
      "componentType": 5126,
      "count": 65531,
      "bufferView": 18,
      "byteOffset": 12
    },
    {
      "type": "VEC2",
      "componentType": 5126,
      "count": 65531,
      "bufferView": 18,
      "byteOffset": 24
    },
    {
      "type": "VEC3",
      "componentType": 5126,
      "count": 18293,
      "max": [
        98.26082611083984,
        28.150712966918945,
        36.46413803100586
      ],
      "min": [
        65.72537231445312,
        23.744600296020508,
        -0.36580100655555725
      ],
      "bufferView": 19,
      "byteOffset": 0
    },
    {
      "type": "VEC3",
      "componentType": 5126,
      "count": 18293,
      "bufferView": 19,
      "byteOffset": 12
    },
    {
      "type": "VEC2",
      "componentType": 5126,
      "count": 18293,
      "bufferView": 19,
      "byteOffset": 24
    }
  ],
  "bufferViews": [
    {
      "buffer": 0,
      "byteOffset": 0,
      "byteLength": 768,
      "byteStride": 32,
      "target": 34962
    },
    {
      "buffer": 0,
      "byteOffset": 768,
      "byteLength": 3280000,
      "target": 34963
    },
    {
      "buffer": 0,
      "byteOffset": 3280768,
      "byteLength": 341536,
      "byteStride": 32,
      "target": 34962
    },
    {
      "buffer": 0,
      "byteOffset": 3622304,
      "byteLength": 85464,
      "byteStride": 36,
      "target": 34962
    },
    {
      "buffer": 0,
      "byteOffset": 3707768,
      "byteLength": 121680,
      "byteStride": 36,
      "target": 34962
    },
    {
      "buffer": 0,
      "byteOffset": 3829448,
      "byteLength": 131256,
      "byteStride": 36,
      "target": 34962
    },
    {
      "buffer": 0,
      "byteOffset": 3960704,
      "byteLength": 124128,
      "byteStride": 36,
      "target": 34962
    },
    {
      "buffer": 0,
      "byteOffset": 4084832,
      "byteLength": 52992,
      "byteStride": 36,
      "target": 34962
    },
    {
      "buffer": 0,
      "byteOffset": 4137824,
      "byteLength": 85464,
      "byteStride": 36,
      "target": 34962
    },
    {
      "buffer": 0,
      "byteOffset": 4223288,
      "byteLength": 121680,
      "byteStride": 36,
      "target": 34962
    },
    {
      "buffer": 0,
      "byteOffset": 4344968,
      "byteLength": 131256,
      "byteStride": 36,
      "target": 34962
    },
    {
      "buffer": 0,
      "byteOffset": 4476224,
      "byteLength": 124128,
      "byteStride": 36,
      "target": 34962
    },
    {
      "buffer": 0,
      "byteOffset": 4600352,
      "byteLength": 52992,
      "byteStride": 36,
      "target": 34962
    },
    {
      "buffer": 0,
      "byteOffset": 4653344,
      "byteLength": 17424,
      "byteStride": 36,
      "target": 34962
    },
    {
      "buffer": 0,
      "byteOffset": 4670768,
      "byteLength": 2359116,
      "byteStride": 36,
      "target": 34962
    },
    {
      "buffer": 0,
      "byteOffset": 7029884,
      "byteLength": 1538352,
      "byteStride": 36,
      "target": 34962
    },
    {
      "buffer": 0,
      "byteOffset": 8568236,
      "byteLength": 2096992,
      "byteStride": 32,
      "target": 34962
    },
    {
      "buffer": 0,
      "byteOffset": 10665228,
      "byteLength": 2096992,
      "byteStride": 32,
      "target": 34962
    },
    {
      "buffer": 0,
      "byteOffset": 12762220,
      "byteLength": 2096992,
      "byteStride": 32,
      "target": 34962
    },
    {
      "buffer": 0,
      "byteOffset": 14859212,
      "byteLength": 585376,
      "byteStride": 32,
      "target": 34962
    }
  ],
  "buffers": [
    {
      "uri": "Monumen_Kilometer_Nol_Indonesia.bin",
      "byteLength": 15444588
    }
  ],
  "materials": [
    {
      "name": "lambert1",
      "doubleSided": true,
      "pbrMetallicRoughness": {
        "baseColorFactor": [
          0.5,
          0.5,
          0.5,
          1
        ],
        "roughnessFactor": 0.6,
        "metallicFactor": 0
      }
    },
    {
      "name": "pasted__typeShader7",
      "doubleSided": true,
      "pbrMetallicRoughness": {
        "baseColorFactor": [
          0.8,
          0.8,
          0.8,
          1
        ],
        "roughnessFactor": 0.6,
        "metallicFactor": 0
      }
    },
    {
      "name": "typeShader7",
      "doubleSided": true,
      "pbrMetallicRoughness": {
        "baseColorFactor": [
          0.8,
          0.8,
          0.8,
          1
        ],
        "roughnessFactor": 0.6,
        "metallicFactor": 0
      }
    },
    {
      "name": "pasted__pasted__typeShader3",
      "doubleSided": true,
      "pbrMetallicRoughness": {
        "baseColorFactor": [
          0.8,
          0.8,
          0.8,
          1
        ],
        "roughnessFactor": 0.6,
        "metallicFactor": 0
      }
    },
    {
      "name": "pasted__typeShader3",
      "doubleSided": true,
      "pbrMetallicRoughness": {
        "baseColorFactor": [
          0.8,
          0.8,
          0.8,
          1
        ],
        "roughnessFactor": 0.6,
        "metallicFactor": 0
      }
    },
    {
      "name": "pasted__pasted__typeShader7",
      "doubleSided": true,
      "pbrMetallicRoughness": {
        "baseColorFactor": [
          0.8,
          0.8,
          0.8,
          1
        ],
        "roughnessFactor": 0.6,
        "metallicFactor": 0
      }
    },
    {
      "name": "pasted__typeShader8",
      "doubleSided": true,
      "pbrMetallicRoughness": {
        "baseColorFactor": [
          0.8,
          0.8,
          0.8,
          1
        ],
        "roughnessFactor": 0.6,
        "metallicFactor": 0
      }
    },
    {
      "name": "pasted__pasted__pasted__typeShader3",
      "doubleSided": true,
      "pbrMetallicRoughness": {
        "baseColorFactor": [
          0.8,
          0.8,
          0.8,
          1
        ],
        "roughnessFactor": 0.6,
        "metallicFactor": 0
      }
    },
    {
      "name": "pasted__pasted__typeShader4",
      "doubleSided": true,
      "pbrMetallicRoughness": {
        "baseColorFactor": [
          0.8,
          0.8,
          0.8,
          1
        ],
        "roughnessFactor": 0.6,
        "metallicFactor": 0
      }
    },
    {
      "name": "svgBlinn7",
      "doubleSided": true,
      "pbrMetallicRoughness": {
        "baseColorFactor": [
          0.8,
          0.8,
          0.8,
          1
        ],
        "metallicFactor": 0
      },
      "extensions": {
        "KHR_materials_specular": {
          "specularColorFactor": [
            0.5,
            0.5,
            0.5
          ]
        }
      }
    },
    {
      "name": "Tritix2:default2",
      "doubleSided": true,
      "pbrMetallicRoughness": {
        "baseColorFactor": [
          0.346321,
          0.346321,
          0.346321,
          1
        ],
        "metallicFactor": 0
      }
    }
  ],
  "meshes": [
    {
      "name": "pCube1_lambert1_0",
      "primitives": [
        {
          "attributes": {
            "POSITION": 0,
            "NORMAL": 1,
            "TEXCOORD_0": 2
          },
          "mode": 4,
          "material": 0,
          "indices": 3
        }
      ]
    },
    {
      "name": "polySurface68_lambert1_0",
      "primitives": [
        {
          "attributes": {
            "POSITION": 22,
            "NORMAL": 23,
            "TEXCOORD_0": 24
          },
          "mode": 4,
          "material": 0,
          "indices": 4
        }
      ]
    },
    {
      "name": "group9_pasted__svgMesh2_pasted__typeShader7_0",
      "primitives": [
        {
          "attributes": {
            "POSITION": 25,
            "NORMAL": 26,
            "COLOR_0": 27,
            "TEXCOORD_0": 28
          },
          "mode": 4,
          "material": 1,
          "indices": 5
        }
      ]
    },
    {
      "name": "group9_pasted__svgMesh2_typeShader7_0",
      "primitives": [
        {
          "attributes": {
            "POSITION": 29,
            "NORMAL": 30,
            "COLOR_0": 31,
            "TEXCOORD_0": 32
          },
          "mode": 4,
          "material": 2,
          "indices": 6
        }
      ]
    },
    {
      "name": "group9_pasted__svgMesh2_pasted__pasted__typeShader3_0",
      "primitives": [
        {
          "attributes": {
            "POSITION": 33,
            "NORMAL": 34,
            "COLOR_0": 35,
            "TEXCOORD_0": 36
          },
          "mode": 4,
          "material": 3,
          "indices": 7
        }
      ]
    },
    {
      "name": "group9_pasted__svgMesh2_pasted__typeShader3_0",
      "primitives": [
        {
          "attributes": {
            "POSITION": 37,
            "NORMAL": 38,
            "COLOR_0": 39,
            "TEXCOORD_0": 40
          },
          "mode": 4,
          "material": 4,
          "indices": 8
        }
      ]
    },
    {
      "name": "group9_pasted__svgMesh2_lambert1_0",
      "primitives": [
        {
          "attributes": {
            "POSITION": 41,
            "NORMAL": 42,
            "COLOR_0": 43,
            "TEXCOORD_0": 44
          },
          "mode": 4,
          "material": 0,
          "indices": 9
        }
      ]
    },
    {
      "name": "pasted__group9_pasted__svgMesh2_pasted__pasted__typeShader7_0",
      "primitives": [
        {
          "attributes": {
            "POSITION": 45,
            "NORMAL": 46,
            "COLOR_0": 47,
            "TEXCOORD_0": 48
          },
          "mode": 4,
          "material": 5,
          "indices": 10
        }
      ]
    },
    {
      "name": "pasted__group9_pasted__svgMesh2_pasted__typeShader8_0",
      "primitives": [
        {
          "attributes": {
            "POSITION": 49,
            "NORMAL": 50,
            "COLOR_0": 51,
            "TEXCOORD_0": 52
          },
          "mode": 4,
          "material": 6,
          "indices": 11
        }
      ]
    },
    {
      "name": "pasted__group9_pasted__svgMesh2_pasted__pasted__pasted__typeShader3_0",
      "primitives": [
        {
          "attributes": {
            "POSITION": 53,
            "NORMAL": 54,
            "COLOR_0": 55,
            "TEXCOORD_0": 56
          },
          "mode": 4,
          "material": 7,
          "indices": 12
        }
      ]
    },
    {
      "name": "pasted__group9_pasted__svgMesh2_pasted__pasted__typeShader4_0",
      "primitives": [
        {
          "attributes": {
            "POSITION": 57,
            "NORMAL": 58,
            "COLOR_0": 59,
            "TEXCOORD_0": 60
          },
          "mode": 4,
          "material": 8,
          "indices": 13
        }
      ]
    },
    {
      "name": "pasted__group9_pasted__svgMesh2_lambert1_0",
      "primitives": [
        {
          "attributes": {
            "POSITION": 61,
            "NORMAL": 62,
            "COLOR_0": 63,
            "TEXCOORD_0": 64
          },
          "mode": 4,
          "material": 0,
          "indices": 14
        }
      ]
    },
    {
      "name": "pCylinder9_lambert1_0",
      "primitives": [
        {
          "attributes": {
            "POSITION": 65,
            "NORMAL": 66,
            "COLOR_0": 67,
            "TEXCOORD_0": 68
          },
          "mode": 4,
          "material": 0,
          "indices": 15
        }
      ]
    },
    {
      "name": "pCylinder9_svgBlinn7_0",
      "primitives": [
        {
          "attributes": {
            "POSITION": 69,
            "NORMAL": 70,
            "COLOR_0": 71,
            "TEXCOORD_0": 72
          },
          "mode": 4,
          "material": 9,
          "indices": 16
        }
      ]
    },
    {
      "name": "pCylinder9_svgBlinn7_0",
      "primitives": [
        {
          "attributes": {
            "POSITION": 73,
            "NORMAL": 74,
            "COLOR_0": 75,
            "TEXCOORD_0": 76
          },
          "mode": 4,
          "material": 9,
          "indices": 17
        }
      ]
    },
    {
      "name": "Mesh4_Tritix2:default2_0",
      "primitives": [
        {
          "attributes": {
            "POSITION": 77,
            "NORMAL": 78,
            "TEXCOORD_0": 79
          },
          "mode": 4,
          "material": 10,
          "indices": 18
        }
      ]
    },
    {
      "name": "Mesh4_Tritix2:default2_0",
      "primitives": [
        {
          "attributes": {
            "POSITION": 80,
            "NORMAL": 81,
            "TEXCOORD_0": 82
          },
          "mode": 4,
          "material": 10,
          "indices": 19
        }
      ]
    },
    {
      "name": "Mesh4_Tritix2:default2_0",
      "primitives": [
        {
          "attributes": {
            "POSITION": 83,
            "NORMAL": 84,
            "TEXCOORD_0": 85
          },
          "mode": 4,
          "material": 10,
          "indices": 20
        }
      ]
    },
    {
      "name": "Mesh4_Tritix2:default2_0",
      "primitives": [
        {
          "attributes": {
            "POSITION": 86,
            "NORMAL": 87,
            "TEXCOORD_0": 88
          },
          "mode": 4,
          "material": 10,
          "indices": 21
        }
      ]
    }
  ],
  "nodes": [
    {
      "name": "2c88fa5d60b146eabda365d8272f1197.fbx",
      "rotation": [
        0.7071067811865475,
        0,
        0,
        0.7071067811865476
      ],
      "scale": [
        0.009999999776482582,
        0.009999999776482582,
        0.009999999776482582
      ],
      "children": [
        1
      ]
    },
    {
      "name": "RootNode",
      "children": [
        2,
        5,
        8,
        15,
        23,
        28
      ]
    },
    {
      "name": "pCube1",
      "scale": [
        53.00299835205078,
        0.5569760203361511,
        53.00299835205078
      ],
      "children": [
        3
      ]
    },
    {
      "name": "pCube1",
      "children": [
        4
      ]
    },
    {
      "name": "pCube1_lambert1_0",
      "mesh": 0
    },
    {
      "name": "polySurface68",
      "children": [
        6
      ]
    },
    {
      "name": "polySurface68",
      "children": [
        7
      ]
    },
    {
      "name": "polySurface68_lambert1_0",
      "mesh": 1
    },
    {
      "name": "group9_pasted__svgMesh2",
      "translation": [
        -0.469990998506546,
        0,
        -0.469990998506546
      ],
      "rotation": [
        0,
        0.7071067811865475,
        0,
        0.7071067811865476
      ],
      "children": [
        9
      ]
    },
    {
      "name": "group9_pasted__svgMesh2",
      "children": [
        10,
        11,
        12,
        13,
        14
      ]
    },
    {
      "name": "group9_pasted__svgMesh2_pasted__typeShader7_0",
      "mesh": 2
    },
    {
      "name": "group9_pasted__svgMesh2_typeShader7_0",
      "mesh": 3
    },
    {
      "name": "group9_pasted__svgMesh2_pasted__pasted__typeShader3_0",
      "mesh": 4
    },
    {
      "name": "group9_pasted__svgMesh2_pasted__typeShader3_0",
      "mesh": 5
    },
    {
      "name": "group9_pasted__svgMesh2_lambert1_0",
      "mesh": 6
    },
    {
      "name": "group10",
      "children": [
        16
      ]
    },
    {
      "name": "pasted__group9_pasted__svgMesh2",
      "children": [
        17
      ]
    },
    {
      "name": "pasted__group9_pasted__svgMesh2",
      "children": [
        18,
        19,
        20,
        21,
        22
      ]
    },
    {
      "name": "pasted__group9_pasted__svgMesh2_pasted__pasted__typeShader7_0",
      "mesh": 7
    },
    {
      "name": "pasted__group9_pasted__svgMesh2_pasted__typeShader8_0",
      "mesh": 8
    },
    {
      "name": "pasted__group9_pasted__svgMesh2_pasted__pasted__pasted__typeShader3_0",
      "mesh": 9
    },
    {
      "name": "pasted__group9_pasted__svgMesh2_pasted__pasted__typeShader4_0",
      "mesh": 10
    },
    {
      "name": "pasted__group9_pasted__svgMesh2_lambert1_0",
      "mesh": 11
    },
    {
      "name": "pCylinder9",
      "children": [
        24
      ]
    },
    {
      "name": "pCylinder9",
      "children": [
        25,
        26,
        27
      ]
    },
    {
      "name": "pCylinder9_lambert1_0",
      "mesh": 12
    },
    {
      "name": "pCylinder9_svgBlinn7_0",
      "mesh": 13
    },
    {
      "name": "pCylinder9_svgBlinn7_0",
      "mesh": 14
    },
    {
      "name": "Mesh4",
      "translation": [
        -74.96009826660156,
        -7.118730068206787,
        -17.931400299072266
      ],
      "scale": [
        0.8782050013542175,
        0.8782050013542175,
        0.8782050013542175
      ],
      "children": [
        29
      ]
    },
    {
      "name": "Mesh4",
      "children": [
        30,
        31,
        32,
        33
      ]
    },
    {
      "name": "Mesh4_Tritix2:default2_0",
      "mesh": 15
    },
    {
      "name": "Mesh4_Tritix2:default2_0",
      "mesh": 16
    },
    {
      "name": "Mesh4_Tritix2:default2_0",
      "mesh": 17
    },
    {
      "name": "Mesh4_Tritix2:default2_0",
      "mesh": 18
    },
    {
      "name": "Sketchfab_model",
      "translation": [
        1.8955350356009149e-7,
        -0.27700865268707275,
        -1.335014820098877
      ],
      "rotation": [
        -0.5877852520995734,
        0,
        0,
        0.8090169945150972
      ],
      "children": [
        0
      ]
    }
  ],
  "scenes": [
    {
      "name": "Scene",
      "nodes": [
        34
      ]
    }
  ],
  "extensionsUsed": [
    "KHR_materials_specular"
  ]
}